<?xml version="1.0" standalone="no"?>
<!DOCTYPE svg PUBLIC "-//W3C//DTD SVG 20010904//EN"
 "http://www.w3.org/TR/2001/REC-SVG-20010904/DTD/svg10.dtd">
<svg version="1.0" xmlns="http://www.w3.org/2000/svg"
 width="1024.000000pt" height="1024.000000pt" viewBox="0 0 1024.000000 1024.000000"
 preserveAspectRatio="xMidYMid meet">
<metadata>
Created by potrace 1.11, written by Peter Selinger 2001-2013
</metadata>
<g transform="translate(0.000000,1024.000000) scale(0.100000,-0.100000)"
fill="#000000" stroke="none">
<path d="M0 5120 l0 -5120 5120 0 5120 0 0 5120 0 5120 -5120 0 -5120 0 0
-5120z m4438 2993 l-3 -298 -1447 -3 -1448 -2 0 -1115 0 -1115 1133 -2 1132
-3 3 -287 2 -288 -1135 0 -1135 0 0 -1215 0 -1215 1463 -2 1462 -3 3 -293 2
-292 -1820 0 -1820 0 0 3215 0 3215 1805 0 1805 0 -2 -297z m5002 -58 l0 -355
-1674 -2562 -1674 -2563 1627 -5 1626 -5 3 -292 2 -293 -2010 0 -2010 0 0 300
0 301 1700 2615 c935 1439 1700 2617 1700 2620 0 2 -744 5 -1652 6 l-1653 3
-3 293 -2 292 2010 0 2010 0 0 -355z"/>
</g>
</svg>
